# xmcd
#
# Track frame offsets: 
#        150
#        16235
#        32988
#        47449
#        63611
#        78527
#        94650
#        110116
#        134901
#        153684
#        172837
#        200211
#        215569
#        235209
#        250440
#        267220
#        288998
#        302412
#        320454
#
# Disc length: 4488 seconds
#
# Revision: 4
# Processed by: cddbd v1.5.2PL0 Copyright (c) Steve Scherf et al.
# Submitted via: ExactAudioCopy v0.99pb5
#
DISCID=1c118613
DTITLE=Alexis Korner - kornerstoned - The Godfather of British Blues 1
DTITLE=970-1983
DYEAR=2006
DGENRE=Blues
TTITLE0=C.C.S. - Whole Lotta Love
TTITLE1=C.C.S. - Tap Turns On The Water
TTITLE2=AK - Hellhound On My Trail
TTITLE3=Snape - Gospel Ship
TTITLE4=Snape - Ooh Wee Baby
TTITLE5=AK - Wild Women and Desperate Men
TTITLE6=AK - Vicksburg Blues
TTITLE7=AK - Get Off My Cloud
TTITLE8=AK - Robert Johnson
TTITLE9=AK - The Gambler
TTITLE10=AK - The Love You Save
TTITLE11=AK -& Bob Hall -  Pinetop's Boogie Woogie
TTITLE12=AK with friends  Hey Pretty Mama
TTITLE13=AK with friends  Lining Track
TTITLE14=AK - Hammer and Nails
TTITLE15=AK &Colin Hodgkinson - Key To The Highway
TTITLE16=AK &Colin Hodgkinson - Blood On The Saddle
TTITLE17=AK - Juvenile Delinquent
TTITLE18=AK - Mean Fool
EXTD=YEAR: 2006
EXTT0=
EXTT1=
EXTT2=
EXTT3=
EXTT4=
EXTT5=
EXTT6=
EXTT7=
EXTT8=
EXTT9=
EXTT10=
EXTT11=
EXTT12=
EXTT13=
EXTT14=
EXTT15=
EXTT16=
EXTT17=
EXTT18=
PLAYORDER=
